inDegrees=no
num_controls=7
num_derivatives=13
num_iterations=78
num_multipliers=7
num_parameters=0
num_slacks=7
num_states=26
objective=0.454278
objective_accelerations=0.045722
objective_balance=0.000853
objective_effort=0.037130
objective_height=0.364490
objective_ligament=0.006083
solver_duration=892.720636
status=Solve_Succeeded
success=true
DataType=double
version=3
OpenSimVersion=4.5
endheader
time	/jointset/ground_pelvis/pelvis_tilt/value	/jointset/ground_pelvis/pelvis_tx/value	/jointset/ground_pelvis/pelvis_ty/value	/jointset/hip_r/hip_flexion_r/value	/jointset/hip_r/hip_adduction_r/value	/jointset/hip_r/hip_rotation_r/value	/jointset/back/lumbar_extension/value	/jointset/patellofemoral_r/patellar_flexion_r/value	/jointset/knee_r/knee_flexion_r/value	/jointset/knee_r/knee_adduction_r/value	/jointset/knee_r/knee_rotation_r/value	/jointset/ankle_r/ankle_angle_r/value	/jointset/subtalar_r/subtalar_angle_r/value	/jointset/ground_pelvis/pelvis_tilt/speed	/jointset/ground_pelvis/pelvis_tx/speed	/jointset/ground_pelvis/pelvis_ty/speed	/jointset/hip_r/hip_flexion_r/speed	/jointset/hip_r/hip_adduction_r/speed	/jointset/hip_r/hip_rotation_r/speed	/jointset/back/lumbar_extension/speed	/jointset/patellofemoral_r/patellar_flexion_r/speed	/jointset/knee_r/knee_flexion_r/speed	/jointset/knee_r/knee_adduction_r/speed	/jointset/knee_r/knee_rotation_r/speed	/jointset/ankle_r/ankle_angle_r/speed	/jointset/subtalar_r/subtalar_angle_r/speed	/forceset/tau_hip_flexion_r	/forceset/tau_hip_adduction_r	/forceset/tau_hip_rotation_r	/forceset/tau_knee_flexion_r	/forceset/tau_ankle_angle_r	/forceset/tau_subtalar_angle_r	/forceset/tau_lumbar_extension	lambda_cid13_p0	lambda_cid14_p0	lambda_cid14_p1	lambda_cid14_p2	lambda_cid14_p3	lambda_cid14_p4	lambda_cid14_p5	/jointset/ground_pelvis/pelvis_tilt/accel	/jointset/ground_pelvis/pelvis_tx/accel	/jointset/ground_pelvis/pelvis_ty/accel	/jointset/hip_r/hip_flexion_r/accel	/jointset/hip_r/hip_adduction_r/accel	/jointset/hip_r/hip_rotation_r/accel	/jointset/back/lumbar_extension/accel	/jointset/patellofemoral_r/patellar_flexion_r/accel	/jointset/knee_r/knee_flexion_r/accel	/jointset/knee_r/knee_adduction_r/accel	/jointset/knee_r/knee_rotation_r/accel	/jointset/ankle_r/ankle_angle_r/accel	/jointset/subtalar_r/subtalar_angle_r/accel	gamma_cid13_p0	gamma_cid14_p0	gamma_cid14_p1	gamma_cid14_p2	gamma_cid14_p3	gamma_cid14_p4	gamma_cid14_p5
0	-0.006462071269126848	0.1313272945165153	0.9334221942926161	0.1934211968871041	-0.2277427561817961	-0.2407952016784026	-0.2903787966825928	0.2311786273363428	0.2311786273363406	0.1315783137280737	0.1722348857640578	0.089344008118978	0.06440237029259507	0	0	0	0	0	0	0	0	0	0	0	0	0	0.09331572182589133	-0.03161941496808069	0.004245575061674389	-0.2164305815473816	0.08527572029699862	-0.09807848514362122	-0.01849002674563998	-29.90018616810743	-19.50568888909374	-40.71540113694693	0.8644733544104304	11.78511309714278	-609.5865862861991	28.08582485106114	-1.641467675493455	-1.948291303777293	-0.8361768566005076	9.677937550348464	-0.3071190719688975	2.506992596808209	-6.27129975402385	10.01687167513355	10.01687167513445	-1.917817301843246	0.2995243866781516	2.490532634885937	0.3086122082187281	3.966745903366682e-08	3.299621755385157e-08	-2.969658027084487e-07	1.727218154312197e-07	-1.192189708200507e-09	1.769635975365522e-07	-2.175834992346372e-07
0.01	-0.006538692920497612	0.1312328990957305	0.9333815044219259	0.1938906662047453	-0.2277570174748854	-0.240668271735983	-0.290693281283914	0.2316701893468263	0.231670189346828	0.131482806266307	0.1722451784513771	0.08946860111120301	0.06441915244013655	-0.01530191115610529	-0.01860143049104803	-0.008120619166267879	0.09330352380968353	-0.002886012866471977	0.02531170991929427	-0.06244021869111842	0.09791981979607628	0.09791981979607757	-0.01891579430180824	0.00203178608069214	0.02505958491758474	0.003357102079750772	0.09577762957305797	-0.04938145237850743	0.003734323740869345	-0.2275877937392253	0.1010435427804959	-0.08865434334035885	-0.01877815263388853	-29.90534234616871	-13.91644094073993	-35.71243548982398	0.1451929069040295	5.377466149386069	-611.0606322814683	39.65782469041572	-1.471193272811655	-1.774421110404126	-0.7973658081520448	9.068008334885365	-0.284422950508833	2.53215672689301	-6.161877690680834	9.620641853200249	9.620641853199791	-1.850638566458996	0.1510291218749107	2.534827725736538	0.3493334328713272	5.202330820955656e-08	8.5573379354108e-09	-3.972470784398556e-07	1.9236522673484e-07	3.06007373728564e-08	2.169727100958756e-08	-2.735931045906756e-07
0.02	-0.00676766177085714	0.1309608189323079	0.9332601360872707	0.1952754604682024	-0.2278011550079453	-0.2402904453868896	-0.2916184670249513	0.2331291704995473	0.2331291704995467	0.1312037052471203	0.1722749936801081	0.08984802121371169	0.06446952045347913	-0.03046943979791852	-0.03553694852754971	-0.01613569279300736	0.1830649891636436	-0.005975247993845657	0.05017928133470855	-0.1221402279432337	0.1934838284463767	0.1934838284463723	-0.03671871148799086	0.003904508285792323	0.05096542205684219	0.006717173160224059	0.09823953732020724	-0.06714348978892905	0.003223072419998627	-0.2387450059310686	0.1168113652639955	-0.07923020153708855	-0.01906627852215205	-29.92041543166387	-8.249995675373119	-30.71242197765129	-0.5548033020967308	-1.00772010912335	-611.3093344253846	50.99364582741138	-1.614591172635021	-1.615108812868053	-0.8150677486948266	8.969525859203795	-0.3477635241492411	2.418164896032207	-5.723257866223221	9.545709445978391	9.54570944597789	-1.695241878718117	0.2677116115597644	2.659783079220448	0.3092060083632199	6.43791573854463e-08	-1.588154168302997e-08	-4.975283541712625e-07	2.120086380384603e-07	6.239366445391332e-08	-1.335690555173771e-07	-3.29602709946714e-07
0.03	-0.007147587112376146	0.1305255941126487	0.9330589244523507	0.1975424076031039	-0.2278772035191782	-0.2396669834205931	-0.2931270485558654	0.235531438610712	0.2355314386107082	0.1307524937283525	0.1723233806521149	0.090487609810011	0.06455260392873231	-0.04545174984472719	-0.05144141926142473	-0.02410425480837373	0.2699176082829768	-0.009246251681414875	0.0744291610004697	-0.1791686865483993	0.2865048643857747	0.2865048643857739	-0.05334084374734645	0.00572467111571876	0.07678841095854563	0.009838538490677442	0.09257638824342744	-0.06644161866675162	0.003808723037134577	-0.2327019233907309	0.108110169012489	-0.0758684805135259	-0.01441418511119395	-29.94474938513691	-10.87318979234089	-29.58843192710627	-0.8748334149929639	0.2930107025125185	-611.7969195478347	52.36622166111562	-1.430465554201344	-1.568114175124701	-0.7874208617144041	8.482105904311602	-0.3185668196517538	2.415857268784514	-5.631531103981284	9.11054833215749	9.110548332158256	-1.618344718574757	0.1319825350849094	2.518981552265615	0.3044017240021168	7.133380406086826e-08	-2.906829735150485e-08	-5.611160720170385e-07	2.010664552423798e-07	7.748700148675499e-08	-2.308528459506878e-07	-3.443062896018754e-07
